<svg xmlns="http://www.w3.org/2000/svg" version="1.1" xmlns:xlink="http://www.w3.org/1999/xlink" xmlns:svgjs="http://svgjs.com/svgjs" width="1440" height="560" preserveAspectRatio="none" viewBox="0 0 1440 560"><g mask="url(&quot;#SvgjsMask1001&quot;)" fill="none"><rect width="1440" height="560" x="0" y="0" fill="rgba(162, 167, 173, 1)"></rect><path d="M83.54 279.6L148.5 317.1L148.5 392.1L83.54 429.6L18.59 392.1L18.59 317.1zM18.59 392.1L83.54 429.6L83.54 504.6L18.59 542.1L-46.36 504.6L-46.36 429.6zM148.5 392.1L213.45 429.6L213.45 504.6L148.5 542.1L83.54 504.6L83.54 429.6zM278.4 167.1L343.36 204.6L343.36 279.6L278.4 317.1L213.45 279.6L213.45 204.6zM408.31 -57.9L473.27 -20.4L473.27 54.6L408.31 92.1L343.36 54.6L343.36 -20.4zM408.31 167.1L473.27 204.6L473.27 279.6L408.31 317.1L343.36 279.6L343.36 204.6zM668.13 167.1L733.08 204.6L733.08 279.6L668.13 317.1L603.17 279.6L603.17 204.6zM733.08 279.6L798.04 317.1L798.04 392.1L733.08 429.6L668.13 392.1L668.13 317.1zM668.13 392.1L733.08 429.6L733.08 504.6L668.13 542.1L603.17 504.6L603.17 429.6zM798.03 167.1L862.99 204.6L862.99 279.6L798.03 317.1L733.08 279.6L733.08 204.6zM862.99 279.6L927.94 317.1L927.94 392.1L862.99 429.6L798.03 392.1L798.03 317.1zM927.94 392.1L992.9 429.6L992.9 504.6L927.94 542.1L862.99 504.6L862.99 429.6zM992.9 504.6L1057.85 542.1L1057.85 617.1L992.9 654.6L927.94 617.1L927.94 542.1zM1057.85 392.1L1122.8 429.6L1122.8 504.6L1057.85 542.1L992.9 504.6L992.9 429.6zM1187.76 392.1L1252.71 429.6L1252.71 504.6L1187.76 542.1L1122.8 504.6L1122.8 429.6zM1252.71 504.6L1317.66 542.1L1317.66 617.1L1252.71 654.6L1187.76 617.1L1187.76 542.1zM1317.66 -57.9L1382.62 -20.4L1382.62 54.6L1317.66 92.1L1252.71 54.6L1252.71 -20.4zM1382.62 54.6L1447.57 92.1L1447.57 167.1L1382.62 204.6L1317.66 167.1L1317.66 92.1zM1447.57 392.1L1512.53 429.6L1512.53 504.6L1447.57 542.1L1382.62 504.6L1382.62 429.6z" stroke="#03305d" stroke-width="2"></path><path d="M76.04 279.6 a7.5 7.5 0 1 0 15 0 a7.5 7.5 0 1 0 -15 0zM141 317.1 a7.5 7.5 0 1 0 15 0 a7.5 7.5 0 1 0 -15 0zM141 392.1 a7.5 7.5 0 1 0 15 0 a7.5 7.5 0 1 0 -15 0zM76.04 429.6 a7.5 7.5 0 1 0 15 0 a7.5 7.5 0 1 0 -15 0zM11.09 392.1 a7.5 7.5 0 1 0 15 0 a7.5 7.5 0 1 0 -15 0zM11.09 317.1 a7.5 7.5 0 1 0 15 0 a7.5 7.5 0 1 0 -15 0zM76.04 504.6 a7.5 7.5 0 1 0 15 0 a7.5 7.5 0 1 0 -15 0zM11.09 542.1 a7.5 7.5 0 1 0 15 0 a7.5 7.5 0 1 0 -15 0zM-53.86 504.6 a7.5 7.5 0 1 0 15 0 a7.5 7.5 0 1 0 -15 0zM-53.86 429.6 a7.5 7.5 0 1 0 15 0 a7.5 7.5 0 1 0 -15 0zM205.95 429.6 a7.5 7.5 0 1 0 15 0 a7.5 7.5 0 1 0 -15 0zM205.95 504.6 a7.5 7.5 0 1 0 15 0 a7.5 7.5 0 1 0 -15 0zM141 542.1 a7.5 7.5 0 1 0 15 0 a7.5 7.5 0 1 0 -15 0zM270.9 167.1 a7.5 7.5 0 1 0 15 0 a7.5 7.5 0 1 0 -15 0zM335.86 204.6 a7.5 7.5 0 1 0 15 0 a7.5 7.5 0 1 0 -15 0zM335.86 279.6 a7.5 7.5 0 1 0 15 0 a7.5 7.5 0 1 0 -15 0zM270.9 317.1 a7.5 7.5 0 1 0 15 0 a7.5 7.5 0 1 0 -15 0zM205.95 279.6 a7.5 7.5 0 1 0 15 0 a7.5 7.5 0 1 0 -15 0zM205.95 204.6 a7.5 7.5 0 1 0 15 0 a7.5 7.5 0 1 0 -15 0zM400.81 -57.9 a7.5 7.5 0 1 0 15 0 a7.5 7.5 0 1 0 -15 0zM465.77 -20.4 a7.5 7.5 0 1 0 15 0 a7.5 7.5 0 1 0 -15 0zM465.77 54.6 a7.5 7.5 0 1 0 15 0 a7.5 7.5 0 1 0 -15 0zM400.81 92.1 a7.5 7.5 0 1 0 15 0 a7.5 7.5 0 1 0 -15 0zM335.86 54.6 a7.5 7.5 0 1 0 15 0 a7.5 7.5 0 1 0 -15 0zM335.86 -20.4 a7.5 7.5 0 1 0 15 0 a7.5 7.5 0 1 0 -15 0zM400.81 167.1 a7.5 7.5 0 1 0 15 0 a7.5 7.5 0 1 0 -15 0zM465.77 204.6 a7.5 7.5 0 1 0 15 0 a7.5 7.5 0 1 0 -15 0zM465.77 279.6 a7.5 7.5 0 1 0 15 0 a7.5 7.5 0 1 0 -15 0zM400.81 317.1 a7.5 7.5 0 1 0 15 0 a7.5 7.5 0 1 0 -15 0zM660.63 167.1 a7.5 7.5 0 1 0 15 0 a7.5 7.5 0 1 0 -15 0zM725.58 204.6 a7.5 7.5 0 1 0 15 0 a7.5 7.5 0 1 0 -15 0zM725.58 279.6 a7.5 7.5 0 1 0 15 0 a7.5 7.5 0 1 0 -15 0zM660.63 317.1 a7.5 7.5 0 1 0 15 0 a7.5 7.5 0 1 0 -15 0zM595.67 279.6 a7.5 7.5 0 1 0 15 0 a7.5 7.5 0 1 0 -15 0zM595.67 204.6 a7.5 7.5 0 1 0 15 0 a7.5 7.5 0 1 0 -15 0zM790.54 317.1 a7.5 7.5 0 1 0 15 0 a7.5 7.5 0 1 0 -15 0zM790.54 392.1 a7.5 7.5 0 1 0 15 0 a7.5 7.5 0 1 0 -15 0zM725.58 429.6 a7.5 7.5 0 1 0 15 0 a7.5 7.5 0 1 0 -15 0zM660.63 392.1 a7.5 7.5 0 1 0 15 0 a7.5 7.5 0 1 0 -15 0zM725.58 504.6 a7.5 7.5 0 1 0 15 0 a7.5 7.5 0 1 0 -15 0zM660.63 542.1 a7.5 7.5 0 1 0 15 0 a7.5 7.5 0 1 0 -15 0zM595.67 504.6 a7.5 7.5 0 1 0 15 0 a7.5 7.5 0 1 0 -15 0zM595.67 429.6 a7.5 7.5 0 1 0 15 0 a7.5 7.5 0 1 0 -15 0zM790.53 167.1 a7.5 7.5 0 1 0 15 0 a7.5 7.5 0 1 0 -15 0zM855.49 204.6 a7.5 7.5 0 1 0 15 0 a7.5 7.5 0 1 0 -15 0zM855.49 279.6 a7.5 7.5 0 1 0 15 0 a7.5 7.5 0 1 0 -15 0zM790.53 317.1 a7.5 7.5 0 1 0 15 0 a7.5 7.5 0 1 0 -15 0zM920.44 317.1 a7.5 7.5 0 1 0 15 0 a7.5 7.5 0 1 0 -15 0zM920.44 392.1 a7.5 7.5 0 1 0 15 0 a7.5 7.5 0 1 0 -15 0zM855.49 429.6 a7.5 7.5 0 1 0 15 0 a7.5 7.5 0 1 0 -15 0zM790.53 392.1 a7.5 7.5 0 1 0 15 0 a7.5 7.5 0 1 0 -15 0zM985.4 429.6 a7.5 7.5 0 1 0 15 0 a7.5 7.5 0 1 0 -15 0zM985.4 504.6 a7.5 7.5 0 1 0 15 0 a7.5 7.5 0 1 0 -15 0zM920.44 542.1 a7.5 7.5 0 1 0 15 0 a7.5 7.5 0 1 0 -15 0zM855.49 504.6 a7.5 7.5 0 1 0 15 0 a7.5 7.5 0 1 0 -15 0zM1050.35 542.1 a7.5 7.5 0 1 0 15 0 a7.5 7.5 0 1 0 -15 0zM1050.35 617.1 a7.5 7.5 0 1 0 15 0 a7.5 7.5 0 1 0 -15 0zM985.4 654.6 a7.5 7.5 0 1 0 15 0 a7.5 7.5 0 1 0 -15 0zM920.44 617.1 a7.5 7.5 0 1 0 15 0 a7.5 7.5 0 1 0 -15 0zM1050.35 392.1 a7.5 7.5 0 1 0 15 0 a7.5 7.5 0 1 0 -15 0zM1115.3 429.6 a7.5 7.5 0 1 0 15 0 a7.5 7.5 0 1 0 -15 0zM1115.3 504.6 a7.5 7.5 0 1 0 15 0 a7.5 7.5 0 1 0 -15 0zM1180.26 392.1 a7.5 7.5 0 1 0 15 0 a7.5 7.5 0 1 0 -15 0zM1245.21 429.6 a7.5 7.5 0 1 0 15 0 a7.5 7.5 0 1 0 -15 0zM1245.21 504.6 a7.5 7.5 0 1 0 15 0 a7.5 7.5 0 1 0 -15 0zM1180.26 542.1 a7.5 7.5 0 1 0 15 0 a7.5 7.5 0 1 0 -15 0zM1310.16 542.1 a7.5 7.5 0 1 0 15 0 a7.5 7.5 0 1 0 -15 0zM1310.16 617.1 a7.5 7.5 0 1 0 15 0 a7.5 7.5 0 1 0 -15 0zM1245.21 654.6 a7.5 7.5 0 1 0 15 0 a7.5 7.5 0 1 0 -15 0zM1180.26 617.1 a7.5 7.5 0 1 0 15 0 a7.5 7.5 0 1 0 -15 0zM1310.16 -57.9 a7.5 7.5 0 1 0 15 0 a7.5 7.5 0 1 0 -15 0zM1375.12 -20.4 a7.5 7.5 0 1 0 15 0 a7.5 7.5 0 1 0 -15 0zM1375.12 54.6 a7.5 7.5 0 1 0 15 0 a7.5 7.5 0 1 0 -15 0zM1310.16 92.1 a7.5 7.5 0 1 0 15 0 a7.5 7.5 0 1 0 -15 0zM1245.21 54.6 a7.5 7.5 0 1 0 15 0 a7.5 7.5 0 1 0 -15 0zM1245.21 -20.4 a7.5 7.5 0 1 0 15 0 a7.5 7.5 0 1 0 -15 0zM1440.07 92.1 a7.5 7.5 0 1 0 15 0 a7.5 7.5 0 1 0 -15 0zM1440.07 167.1 a7.5 7.5 0 1 0 15 0 a7.5 7.5 0 1 0 -15 0zM1375.12 204.6 a7.5 7.5 0 1 0 15 0 a7.5 7.5 0 1 0 -15 0zM1310.16 167.1 a7.5 7.5 0 1 0 15 0 a7.5 7.5 0 1 0 -15 0zM1440.07 392.1 a7.5 7.5 0 1 0 15 0 a7.5 7.5 0 1 0 -15 0zM1505.03 429.6 a7.5 7.5 0 1 0 15 0 a7.5 7.5 0 1 0 -15 0zM1505.03 504.6 a7.5 7.5 0 1 0 15 0 a7.5 7.5 0 1 0 -15 0zM1440.07 542.1 a7.5 7.5 0 1 0 15 0 a7.5 7.5 0 1 0 -15 0zM1375.12 504.6 a7.5 7.5 0 1 0 15 0 a7.5 7.5 0 1 0 -15 0zM1375.12 429.6 a7.5 7.5 0 1 0 15 0 a7.5 7.5 0 1 0 -15 0z" fill="#03305d"></path><path d="M7.67 101.32L50.97 126.32L50.97 176.32L7.67 201.32L-35.63 176.32L-35.63 126.32zM50.97 176.32L94.28 201.32L94.28 251.32L50.97 276.32L7.67 251.32L7.67 201.32zM50.97 326.32L94.28 351.32L94.28 401.32L50.97 426.32L7.67 401.32L7.67 351.32zM7.67 401.32L50.97 426.32L50.97 476.32L7.67 501.32L-35.63 476.32L-35.63 426.32zM50.97 476.32L94.28 501.32L94.28 551.32L50.97 576.32L7.67 551.32L7.67 501.32zM137.58 26.32L180.88 51.32L180.88 101.32L137.58 126.32L94.28 101.32L94.28 51.32zM94.28 101.32L137.58 126.32L137.58 176.32L94.28 201.32L50.97 176.32L50.97 126.32zM137.58 176.32L180.88 201.32L180.88 251.32L137.58 276.32L94.28 251.32L94.28 201.32zM94.28 251.32L137.58 276.32L137.58 326.32L94.28 351.32L50.97 326.32L50.97 276.32zM137.58 326.32L180.88 351.32L180.88 401.32L137.58 426.32L94.28 401.32L94.28 351.32zM137.58 476.32L180.88 501.32L180.88 551.32L137.58 576.32L94.28 551.32L94.28 501.32zM224.18 26.32L267.49 51.32L267.49 101.32L224.18 126.32L180.88 101.32L180.88 51.32zM224.18 176.32L267.49 201.32L267.49 251.32L224.18 276.32L180.88 251.32L180.88 201.32zM180.88 251.32L224.18 276.32L224.18 326.32L180.88 351.32L137.58 326.32L137.58 276.32zM224.18 326.32L267.49 351.32L267.49 401.32L224.18 426.32L180.88 401.32L180.88 351.32zM180.88 401.32L224.18 426.32L224.18 476.32L180.88 501.32L137.58 476.32L137.58 426.32zM310.79 26.32L354.09 51.32L354.09 101.32L310.79 126.32L267.49 101.32L267.49 51.32zM267.49 101.32L310.79 126.32L310.79 176.32L267.49 201.32L224.18 176.32L224.18 126.32zM310.79 176.32L354.09 201.32L354.09 251.32L310.79 276.32L267.49 251.32L267.49 201.32zM267.49 251.32L310.79 276.32L310.79 326.32L267.49 351.32L224.18 326.32L224.18 276.32zM354.09 -48.68L397.39 -23.68L397.39 26.32L354.09 51.32L310.79 26.32L310.79 -23.68zM397.39 26.32L440.7 51.32L440.7 101.32L397.39 126.32L354.09 101.32L354.09 51.32zM397.39 176.32L440.7 201.32L440.7 251.32L397.39 276.32L354.09 251.32L354.09 201.32zM354.09 251.32L397.39 276.32L397.39 326.32L354.09 351.32L310.79 326.32L310.79 276.32zM354.09 401.32L397.39 426.32L397.39 476.32L354.09 501.32L310.79 476.32L310.79 426.32zM440.7 251.32L484 276.32L484 326.32L440.7 351.32L397.39 326.32L397.39 276.32zM570.6 26.32L613.9 51.32L613.9 101.32L570.6 126.32L527.3 101.32L527.3 51.32zM527.3 101.32L570.6 126.32L570.6 176.32L527.3 201.32L484 176.32L484 126.32zM527.3 251.32L570.6 276.32L570.6 326.32L527.3 351.32L484 326.32L484 276.32zM570.6 476.32L613.9 501.32L613.9 551.32L570.6 576.32L527.3 551.32L527.3 501.32zM657.21 26.32L700.51 51.32L700.51 101.32L657.21 126.32L613.9 101.32L613.9 51.32zM657.21 176.32L700.51 201.32L700.51 251.32L657.21 276.32L613.9 251.32L613.9 201.32zM613.9 401.32L657.21 426.32L657.21 476.32L613.9 501.32L570.6 476.32L570.6 426.32zM657.21 476.32L700.51 501.32L700.51 551.32L657.21 576.32L613.9 551.32L613.9 501.32zM743.81 26.32L787.12 51.32L787.12 101.32L743.81 126.32L700.51 101.32L700.51 51.32zM700.51 101.32L743.81 126.32L743.81 176.32L700.51 201.32L657.21 176.32L657.21 126.32zM743.81 176.32L787.12 201.32L787.12 251.32L743.81 276.32L700.51 251.32L700.51 201.32zM700.51 251.32L743.81 276.32L743.81 326.32L700.51 351.32L657.21 326.32L657.21 276.32zM787.12 101.32L830.42 126.32L830.42 176.32L787.12 201.32L743.81 176.32L743.81 126.32zM830.42 176.32L873.72 201.32L873.72 251.32L830.42 276.32L787.12 251.32L787.12 201.32zM787.12 251.32L830.42 276.32L830.42 326.32L787.12 351.32L743.81 326.32L743.81 276.32zM787.12 401.32L830.42 426.32L830.42 476.32L787.12 501.32L743.81 476.32L743.81 426.32zM917.02 176.32L960.33 201.32L960.33 251.32L917.02 276.32L873.72 251.32L873.72 201.32zM917.02 326.32L960.33 351.32L960.33 401.32L917.02 426.32L873.72 401.32L873.72 351.32zM873.72 401.32L917.02 426.32L917.02 476.32L873.72 501.32L830.42 476.32L830.42 426.32zM1003.63 176.32L1046.93 201.32L1046.93 251.32L1003.63 276.32L960.33 251.32L960.33 201.32zM1046.93 -48.68L1090.23 -23.68L1090.23 26.32L1046.93 51.32L1003.63 26.32L1003.63 -23.68zM1090.23 26.32L1133.54 51.32L1133.54 101.32L1090.23 126.32L1046.93 101.32L1046.93 51.32zM1046.93 101.32L1090.23 126.32L1090.23 176.32L1046.93 201.32L1003.63 176.32L1003.63 126.32zM1046.93 251.32L1090.23 276.32L1090.23 326.32L1046.93 351.32L1003.63 326.32L1003.63 276.32zM1090.23 476.32L1133.54 501.32L1133.54 551.32L1090.23 576.32L1046.93 551.32L1046.93 501.32zM1176.84 326.32L1220.14 351.32L1220.14 401.32L1176.84 426.32L1133.54 401.32L1133.54 351.32zM1176.84 476.32L1220.14 501.32L1220.14 551.32L1176.84 576.32L1133.54 551.32L1133.54 501.32zM1220.14 101.32L1263.44 126.32L1263.44 176.32L1220.14 201.32L1176.84 176.32L1176.84 126.32zM1263.44 176.32L1306.75 201.32L1306.75 251.32L1263.44 276.32L1220.14 251.32L1220.14 201.32zM1220.14 401.32L1263.44 426.32L1263.44 476.32L1220.14 501.32L1176.84 476.32L1176.84 426.32zM1263.44 476.32L1306.75 501.32L1306.75 551.32L1263.44 576.32L1220.14 551.32L1220.14 501.32zM1306.75 101.32L1350.05 126.32L1350.05 176.32L1306.75 201.32L1263.44 176.32L1263.44 126.32zM1306.75 401.32L1350.05 426.32L1350.05 476.32L1306.75 501.32L1263.44 476.32L1263.44 426.32zM1350.05 476.32L1393.35 501.32L1393.35 551.32L1350.05 576.32L1306.75 551.32L1306.75 501.32zM1436.65 326.32L1479.96 351.32L1479.96 401.32L1436.65 426.32L1393.35 401.32L1393.35 351.32zM1436.65 476.32L1479.96 501.32L1479.96 551.32L1436.65 576.32L1393.35 551.32L1393.35 501.32z" stroke="rgba(6, 80, 156, 0.93)" stroke-width="2"></path></g><defs><mask id="SvgjsMask1001"><rect width="1440" height="560" fill="#ffffff"></rect></mask></defs></svg>