<svg xmlns="http://www.w3.org/2000/svg" version="1.1" xmlns:xlink="http://www.w3.org/1999/xlink" xmlns:svgjs="http://svgjs.com/svgjs" width="1438" height="3400" preserveAspectRatio="none" viewBox="0 0 1438 3400"><g mask="url(&quot;#SvgjsMask1269&quot;)" fill="none"><rect width="1438" height="3400" x="0" y="0" fill="rgba(253, 254, 255, 1)"></rect><path d="M0,968.827C178.966,959.443,256.988,731.225,410.485,638.728C570.891,542.068,837.649,588.422,914.609,417.688C991.677,246.715,795.154,73.825,746.8,-107.374C705.79,-261.053,727.134,-424.872,652.311,-565.231C564.588,-729.789,460.361,-907.581,285.574,-972.575C108.354,-1038.474,-87.707,-968.998,-266.26,-906.8C-437.895,-847.012,-614.077,-771.373,-718.689,-622.748C-819.539,-479.468,-784.085,-289.294,-821.397,-118.099C-862.402,70.041,-1031.77,259.537,-948.864,433.332C-865.7,607.667,-607.33,588.341,-439.114,683.274C-283.915,770.861,-177.964,978.158,0,968.827" fill="#a7d3ff"></path><path d="M1438 4181.418C1604.868 4197.42 1778.9 4237.898 1930.483 4166.3189999999995 2089.647 4091.16 2246.359 3957.098 2279.235 3784.179 2311.839 3612.691 2129.129 3476.678 2094.116 3305.665 2062.25 3150.024 2158.178 2980.147 2085.676 2838.785 2007.9569999999999 2687.25 1861.846 2558.014 1694.488 2526.482 1529.876 2495.467 1382.364 2617.63 1225.633 2676.744 1082.183 2730.849 915.29 2744.223 813.417 2858.7960000000003 711.138 2973.825 710.879 3140.252 679.513 3290.946 645.931 3452.283 560.687 3619.623 623.328 3772.048 686.303 3925.2870000000003 854.658 4002.962 1002.694 4077.35 1138.757 4145.721 1286.42 4166.882 1438 4181.418" fill="#ffffff"></path></g><defs><mask id="SvgjsMask1269"><rect width="1438" height="3400" fill="#ffffff"></rect></mask></defs></svg>