<svg xmlns="http://www.w3.org/2000/svg" version="1.1" xmlns:xlink="http://www.w3.org/1999/xlink" xmlns:svgjs="http://svgjs.com/svgjs" width="1440" height="560" preserveAspectRatio="none" viewBox="0 0 1440 560"><g mask="url(&quot;#SvgjsMask1047&quot;)" fill="none"><rect width="1440" height="560" x="0" y="0" fill="rgba(253, 254, 255, 1)"></rect><path d="M0,409.096C74.581,421.844,143.038,360.398,198.624,309.065C248.447,263.055,265.133,195.541,296.412,135.367C329.698,71.331,404.415,14.519,388.297,-55.829C371.939,-127.227,268.356,-135.627,221.436,-191.875C173.078,-249.848,180.747,-351.837,113.221,-385.594C46.41,-418.994,-33.244,-378.177,-104.129,-354.63C-172.839,-331.805,-248.356,-310.561,-290.302,-251.548C-331.242,-193.95,-319.539,-117.037,-323.17,-46.465C-326.469,17.653,-341.769,85.723,-310.54,141.819C-279.971,196.73,-206.938,206.887,-159.305,247.884C-100.861,298.186,-76.008,396.104,0,409.096" fill="#cfe7ff"></path><path d="M1440 1121.5349999999999C1557.569 1128.896 1687.245 1162.585 1785.4 1097.453 1883.393 1032.4279999999999 1903.3020000000001 900.229 1941.258 788.917 1975.6979999999999 687.917 2015.998 584.875 1995.922 480.071 1976.258 377.41999999999996 1889.9189999999999 307.272 1832.292 220.077 1764.465 117.44799999999998 1745.4279999999999-43.549999999999955 1627.26-77.74900000000002 1508.995-111.976 1410.222 22.436000000000035 1294.487 64.43 1188.442 102.90800000000002 1068.5529999999999 93.16500000000002 976.5 158.375 869.879 233.90499999999997 771.163 332.744 737.501 458.996 702.336 590.887 716.482 741.895 790.309 856.704 861.397 967.2529999999999 999.61 1006.2629999999999 1121.32 1055.875 1223.831 1097.661 1329.516 1114.618 1440 1121.5349999999999" fill="#ffffff"></path></g><defs><mask id="SvgjsMask1047"><rect width="1440" height="560" fill="#ffffff"></rect></mask></defs></svg>