<svg xmlns="http://www.w3.org/2000/svg" version="1.1" xmlns:xlink="http://www.w3.org/1999/xlink" xmlns:svgjs="http://svgjs.com/svgjs" width="1440" height="560" preserveAspectRatio="none" viewBox="0 0 1440 560"><g mask="url(&quot;#SvgjsMask1003&quot;)" fill="none"><path d="M 0,70 C 57.6,91.8 172.8,182.4 288,179 C 403.2,175.6 460.8,47.4 576,53 C 691.2,58.6 748.8,193 864,207 C 979.2,221 1036.8,131 1152,123 C 1267.2,115 1382.4,158.2 1440,167L1440 560L0 560z" fill="rgba(235, 223, 117, 1)"></path><path d="M 0,378 C 96,390.4 288,459.4 480,440 C 672,420.6 768,274.2 960,281 C 1152,287.8 1344,435.4 1440,474L1440 560L0 560z" fill="rgba(155, 190, 228, 1)"></path></g><defs><mask id="SvgjsMask1003"><rect width="1440" height="560" fill="#ffffff"></rect></mask></defs></svg>